<svg width="44" height="44" viewBox="0 0 44 44" fill="none" xmlns="http://www.w3.org/2000/svg">
<path d="M44 0H0V44H44V0Z" fill="#FFDF28"/>
<path fill-rule="evenodd" clip-rule="evenodd" d="M13.1833 13.1843V9.6582H9.65715V34.3418H22.0351C29.519 34.3311 35.2796 27.6754 34.2159 20.237C33.3497 14.1825 28.1418 9.6582 21.999 9.6582C20.2359 9.6582 18.4728 9.6582 16.7098 9.6582V27.2892C18.4728 27.2892 20.2359 27.2892 21.999 27.2892C25.6673 27.2892 28.1944 23.6516 26.9875 20.2365C26.4563 18.7335 25.265 17.5422 23.7624 17.011V21.9996C23.7624 22.9732 22.973 23.7626 21.9994 23.7626H20.2363V13.1839C21.4178 13.1839 22.6069 13.1254 23.7624 13.36C30.0854 14.6436 32.9309 22.1253 29.0525 27.2887C27.3907 29.5013 24.7958 30.8148 21.9994 30.8148C19.0607 30.8148 16.1224 30.8148 13.1837 30.8148V13.1839L13.1833 13.1843Z" fill="#2E2E2E"/>
</svg>
